<svg width="1010" height="153" viewBox="0 0 1010 153" fill="none" xmlns="http://www.w3.org/2000/svg">
<path d="M23.9922 8.05469V134.227H90.2031V152H0.164062V8.05469H23.9922ZM164.617 41.2578C171.779 41.6484 178.289 43.4062 184.148 46.5312C190.008 49.526 194.891 53.5625 198.797 58.6406C202.833 63.5885 205.958 69.3828 208.172 76.0234C210.385 82.6641 211.492 89.7604 211.492 97.3125C211.492 104.865 210.32 111.961 207.977 118.602C205.763 125.112 202.638 130.841 198.602 135.789C194.565 140.607 189.617 144.513 183.758 147.508C177.898 150.503 171.518 152.26 164.617 152.781V134.031C171.128 132.599 176.401 128.497 180.438 121.727C184.604 114.956 186.688 106.818 186.688 97.3125C186.688 92.4948 186.167 88.0026 185.125 83.8359C184.214 79.5391 182.781 75.6979 180.828 72.3125C178.875 68.9271 176.531 66.1276 173.797 63.9141C171.062 61.7005 168.003 60.2682 164.617 59.6172V41.2578ZM110.125 96.9219C110.125 89.3698 111.232 82.3385 113.445 75.8281C115.659 69.3177 118.784 63.6536 122.82 58.8359C126.987 53.888 131.935 49.9167 137.664 46.9219C143.393 43.9271 149.708 42.1042 156.609 41.4531V59.6172C150.099 61.0495 144.891 65.151 140.984 71.9219C137.078 78.6927 135.125 86.8307 135.125 96.3359C135.125 101.154 135.581 105.711 136.492 110.008C137.534 114.305 138.966 118.146 140.789 121.531C142.612 124.917 144.826 127.716 147.43 129.93C150.164 132.143 153.224 133.51 156.609 134.031V152.781C149.448 152.26 143.003 150.503 137.273 147.508C131.544 144.383 126.661 140.346 122.625 135.398C118.589 130.451 115.464 124.656 113.25 118.016C111.167 111.375 110.125 104.344 110.125 96.9219ZM263.25 41.8438L265.789 53.1719V112.938V113.328V152H242.156V41.8438H263.25ZM273.797 46.7266C277.052 44.9036 280.958 43.5365 285.516 42.625C290.073 41.5833 296.258 41.0625 304.07 41.0625V65.6719C300.424 64.6302 295.997 64.0443 290.789 63.9141C287.924 63.9141 284.995 64.1745 282 64.6953C279.135 65.0859 276.401 65.737 273.797 66.6484V46.7266ZM421.062 0.242188V152H398.602L397.234 138.914V0.242188H421.062ZM322.234 95.3594C322.234 85.2031 323.602 76.6745 326.336 69.7734C329.201 62.8724 332.846 57.2734 337.273 52.9766C341.701 48.6797 346.583 45.6198 351.922 43.7969C357.391 41.8438 362.729 40.8672 367.938 40.8672C371.974 40.8672 375.815 41.3229 379.461 42.2344C383.107 43.1458 386.362 44.4479 389.227 46.1406V66.8438C387.013 64.5 384.539 62.612 381.805 61.1797C379.07 59.7474 376.01 59.0312 372.625 59.0312C368.589 59.0312 365.008 60.0729 361.883 62.1562C358.758 64.1094 356.089 66.8438 353.875 70.3594C351.792 73.875 350.164 77.9115 348.992 82.4688C347.82 87.026 347.234 91.9089 347.234 97.1172C347.234 102.326 347.885 107.208 349.188 111.766C350.49 116.193 352.247 120.099 354.461 123.484C356.674 126.87 359.344 129.539 362.469 131.492C365.724 133.445 369.24 134.422 373.016 134.422C379.396 134.422 384.799 131.883 389.227 126.805V147.117C386.102 148.81 382.456 150.242 378.289 151.414C374.253 152.456 369.956 152.977 365.398 152.977C360.19 152.977 355.047 152.065 349.969 150.242C345.021 148.289 340.594 145.164 336.688 140.867C331.74 135.268 328.094 128.367 325.75 120.164C323.406 111.831 322.234 103.562 322.234 95.3594ZM575.359 30.3203C574.708 30.0599 573.927 29.6042 573.016 28.9531C572.104 28.3021 570.802 27.7161 569.109 27.1953C567.417 26.5443 565.268 26.0234 562.664 25.6328C560.06 25.2422 556.74 25.1771 552.703 25.4375V5.71094C558.432 5.84115 564.227 6.49219 570.086 7.66406C576.076 8.70573 580.893 10.3984 584.539 12.7422C583.758 14.4349 582.846 16.3229 581.805 18.4062C580.763 20.3594 579.786 22.2474 578.875 24.0703C577.964 25.763 577.182 27.1953 576.531 28.3672C575.88 29.5391 575.49 30.1901 575.359 30.3203ZM507.977 45.9453C507.977 40.2161 508.953 35.0729 510.906 30.5156C512.859 25.9583 515.464 21.987 518.719 18.6016C522.104 15.0859 526.01 12.3516 530.438 10.3984C534.995 8.3151 539.747 6.94792 544.695 6.29688V26.8047C540.529 28.237 537.078 30.776 534.344 34.4219C531.609 37.9375 530.242 41.5182 530.242 45.1641C530.242 50.2422 531.609 54.3438 534.344 57.4688C537.078 60.5938 540.529 63.3281 544.695 65.6719V87.9375C540.398 85.8542 536.102 83.6406 531.805 81.2969C527.508 78.8229 523.602 75.9583 520.086 72.7031C516.57 69.4479 513.641 65.6719 511.297 61.375C509.083 57.0781 507.977 51.9349 507.977 45.9453ZM511.102 125.633C512.924 126.674 515.203 127.716 517.938 128.758C520.802 129.669 523.732 130.581 526.727 131.492C529.721 132.273 532.716 132.924 535.711 133.445C538.706 133.966 541.505 134.227 544.109 134.227H544.695V152.781H544.305C541.18 152.781 537.924 152.586 534.539 152.195C531.284 151.935 527.964 151.414 524.578 150.633C521.193 149.852 517.938 148.81 514.812 147.508C511.818 146.076 509.214 144.383 507 142.43L511.102 125.633ZM552.703 69.5781C557 71.5312 561.362 73.6146 565.789 75.8281C570.346 78.0417 574.448 80.776 578.094 84.0312C581.74 87.1562 584.734 90.9974 587.078 95.5547C589.422 100.112 590.594 105.776 590.594 112.547C590.594 117.234 589.682 121.792 587.859 126.219C586.167 130.646 583.693 134.682 580.438 138.328C577.312 141.844 573.406 144.839 568.719 147.312C564.031 149.786 558.693 151.414 552.703 152.195V133.445C563.38 130.841 568.719 123.745 568.719 112.156C568.719 107.599 567.221 103.823 564.227 100.828C561.232 97.8333 557.391 95.0339 552.703 92.4297V69.5781ZM645.281 118.602C645.281 123.029 645.867 126.479 647.039 128.953C648.211 131.427 649.839 133.315 651.922 134.617C654.135 135.919 656.544 136.766 659.148 137.156C661.883 137.417 664.747 137.547 667.742 137.547V152C666.049 152.26 664.357 152.456 662.664 152.586C661.232 152.716 659.474 152.781 657.391 152.781C655.438 152.911 653.484 152.977 651.531 152.977C649.578 152.977 647.56 152.911 645.477 152.781C643.523 152.651 641.831 152.456 640.398 152.195C635.971 151.414 632.521 149.526 630.047 146.531C627.573 143.406 625.685 140.021 624.383 136.375C623.211 132.599 622.43 128.953 622.039 125.438C621.779 121.922 621.648 119.188 621.648 117.234V57.8594H607.195V41.8438H621.648V10.5938H645.281V41.8438H662.859V57.8594H645.281V118.602ZM747.234 41.2578C754.396 41.6484 760.906 43.4062 766.766 46.5312C772.625 49.526 777.508 53.5625 781.414 58.6406C785.451 63.5885 788.576 69.3828 790.789 76.0234C793.003 82.6641 794.109 89.7604 794.109 97.3125C794.109 104.865 792.938 111.961 790.594 118.602C788.38 125.112 785.255 130.841 781.219 135.789C777.182 140.607 772.234 144.513 766.375 147.508C760.516 150.503 754.135 152.26 747.234 152.781V134.031C753.745 132.599 759.018 128.497 763.055 121.727C767.221 114.956 769.305 106.818 769.305 97.3125C769.305 92.4948 768.784 88.0026 767.742 83.8359C766.831 79.5391 765.398 75.6979 763.445 72.3125C761.492 68.9271 759.148 66.1276 756.414 63.9141C753.68 61.7005 750.62 60.2682 747.234 59.6172V41.2578ZM692.742 96.9219C692.742 89.3698 693.849 82.3385 696.062 75.8281C698.276 69.3177 701.401 63.6536 705.438 58.8359C709.604 53.888 714.552 49.9167 720.281 46.9219C726.01 43.9271 732.326 42.1042 739.227 41.4531V59.6172C732.716 61.0495 727.508 65.151 723.602 71.9219C719.695 78.6927 717.742 86.8307 717.742 96.3359C717.742 101.154 718.198 105.711 719.109 110.008C720.151 114.305 721.583 118.146 723.406 121.531C725.229 124.917 727.443 127.716 730.047 129.93C732.781 132.143 735.841 133.51 739.227 134.031V152.781C732.065 152.26 725.62 150.503 719.891 147.508C714.161 144.383 709.279 140.346 705.242 135.398C701.206 130.451 698.081 124.656 695.867 118.016C693.784 111.375 692.742 104.344 692.742 96.9219ZM845.867 41.8438L848.406 53.1719V112.938V113.328V152H824.773V41.8438H845.867ZM856.414 46.7266C859.669 44.9036 863.576 43.5365 868.133 42.625C872.69 41.5833 878.875 41.0625 886.688 41.0625V65.6719C883.042 64.6302 878.615 64.0443 873.406 63.9141C870.542 63.9141 867.612 64.1745 864.617 64.6953C861.753 65.0859 859.018 65.737 856.414 66.6484V46.7266ZM963.055 40.8672C970.086 41.5182 976.401 43.4062 982 46.5312C987.729 49.6562 992.612 53.6927 996.648 58.6406C1000.68 63.5885 1003.74 69.2526 1005.83 75.6328C1008.04 82.013 1009.15 88.6536 1009.15 95.5547C1009.15 98.6797 1008.95 101.805 1008.56 104.93H941.57V87.7422H986.688C986.688 84.3568 986.102 81.1016 984.93 77.9766C983.888 74.8516 982.26 71.987 980.047 69.3828C977.964 66.6484 975.49 64.3698 972.625 62.5469C969.76 60.724 966.57 59.6172 963.055 59.2266V40.8672ZM962.273 133.641C963.706 133.641 965.464 133.51 967.547 133.25C969.76 132.859 972.039 132.273 974.383 131.492C976.857 130.581 979.266 129.474 981.609 128.172C984.083 126.87 986.232 125.307 988.055 123.484L996.648 136.57C992.352 141.909 987.339 145.945 981.609 148.68C975.88 151.414 968.589 152.781 959.734 152.781C952.573 152.781 945.867 151.349 939.617 148.484C933.367 145.49 928.029 141.453 923.602 136.375C919.174 131.297 915.659 125.372 913.055 118.602C910.451 111.831 909.148 104.539 909.148 96.7266C909.148 89.3047 910.32 82.2734 912.664 75.6328C915.138 68.9922 918.458 63.1979 922.625 58.25C926.792 53.1719 931.609 49.0703 937.078 45.9453C942.677 42.8203 948.667 41.0625 955.047 40.6719V59.4219C950.229 60.3333 946.258 62.2865 943.133 65.2812C940.008 68.276 937.534 71.7266 935.711 75.6328C934.018 79.4089 932.781 83.3151 932 87.3516C931.349 91.388 931.023 94.8385 931.023 97.7031C931.023 102.781 931.609 107.534 932.781 111.961C934.083 116.258 936.036 120.034 938.641 123.289C941.245 126.414 944.435 128.953 948.211 130.906C952.117 132.729 956.805 133.641 962.273 133.641Z" fill="black"/>
</svg>
